REM DIRINDEX 1\2,1\3,1\4,1\5
REM DIRNAME folder01,folder02,folder03,folder04,folder05
TITLE ""
FILE "153.mp3" MP3
  TRACK 01 AUDIO
    TITLE "0:"
    INDEX 01 00:00:00
  TRACK 02 AUDIO
    TITLE "2:cjc046_4303"
    INDEX 01 00:00:13
  TRACK 03 AUDIO
    TITLE "0:"
    INDEX 01 00:01:24
  TRACK 04 AUDIO
    TITLE "3:cjc046_4304"
    INDEX 01 00:01:46
  TRACK 05 AUDIO
    TITLE "0:"
    INDEX 01 00:02:61
  TRACK 06 AUDIO
    TITLE "4:cjc046_4305"
    INDEX 01 00:03:04
  TRACK 07 AUDIO
    TITLE "0:"
    INDEX 01 00:04:15
  TRACK 08 AUDIO
    TITLE "2:cjc046_4306"
    INDEX 01 00:05:26
  TRACK 09 AUDIO
    TITLE "0:"
    INDEX 01 00:06:33
  TRACK 10 AUDIO
    TITLE "3:cjc046_4307"
    INDEX 01 00:06:55
  TRACK 11 AUDIO
    TITLE "0:"
    INDEX 01 00:07:60
  TRACK 12 AUDIO
    TITLE "4:cjc046_4308"
    INDEX 01 00:08:05
  TRACK 13 AUDIO
    TITLE "0:"
    INDEX 01 00:09:12
  TRACK 14 AUDIO
    TITLE "2:cjc046_4309"
    INDEX 01 00:10:21
  TRACK 15 AUDIO
    TITLE "0:"
    INDEX 01 00:11:40
  TRACK 16 AUDIO
    TITLE "3:cjc046_4310"
    INDEX 01 00:11:56
  TRACK 17 AUDIO
    TITLE "0:"
    INDEX 01 00:13:06
  TRACK 18 AUDIO
    TITLE "4:cjc046_4311"
    INDEX 01 00:13:28
  TRACK 19 AUDIO
    TITLE "0:"
    INDEX 01 00:14:45
  TRACK 20 AUDIO
    TITLE "2:cjc046_4312"
    INDEX 01 00:15:52
  TRACK 21 AUDIO
    TITLE "0:"
    INDEX 01 00:16:61
  TRACK 22 AUDIO
    TITLE "3:cjc046_4313"
    INDEX 01 00:17:06
  TRACK 23 AUDIO
    TITLE "0:"
    INDEX 01 00:18:37
  TRACK 24 AUDIO
    TITLE "4:cjc046_4314"
    INDEX 01 00:18:50
  TRACK 25 AUDIO
    TITLE "0:"
    INDEX 01 00:19:58
  TRACK 26 AUDIO
    TITLE "2:cjc046_4315"
    INDEX 01 00:20:67
  TRACK 27 AUDIO
    TITLE "0:"
    INDEX 01 00:22:01
  TRACK 28 AUDIO
    TITLE "3:cjc046_4316"
    INDEX 01 00:22:21
  TRACK 29 AUDIO
    TITLE "0:"
    INDEX 01 00:23:32
  TRACK 30 AUDIO
    TITLE "4:cjc046_4317"
    INDEX 01 00:23:40
  TRACK 31 AUDIO
    TITLE "0:"
    INDEX 01 00:24:49
  TRACK 32 AUDIO
    TITLE "2:cjc046_4318"
    INDEX 01 00:25:56
  TRACK 33 AUDIO
    TITLE "0:"
    INDEX 01 00:26:60
  TRACK 34 AUDIO
    TITLE "3:cjc046_4319"
    INDEX 01 00:27:08
  TRACK 35 AUDIO
    TITLE "0:"
    INDEX 01 00:28:25
  TRACK 36 AUDIO
    TITLE "4:cjc046_4320"
    INDEX 01 00:28:43
  TRACK 37 AUDIO
    TITLE "0:"
    INDEX 01 00:29:46
  TRACK 38 AUDIO
    TITLE "2:cjc046_4321"
    INDEX 01 00:30:55
  TRACK 39 AUDIO
    TITLE "0:"
    INDEX 01 00:31:67
  TRACK 40 AUDIO
    TITLE "3:cjc046_4322"
    INDEX 01 00:32:11
  TRACK 41 AUDIO
    TITLE "0:"
    INDEX 01 00:33:13
  TRACK 42 AUDIO
    TITLE "4:cjc046_4323"
    INDEX 01 00:33:34
  TRACK 43 AUDIO
    TITLE "0:"
    INDEX 01 00:34:47
  TRACK 44 AUDIO
    TITLE "2:cjc046_4324"
    INDEX 01 00:35:55
  TRACK 45 AUDIO
    TITLE "0:"
    INDEX 01 00:36:60
  TRACK 46 AUDIO
    TITLE "3:cjc046_4325"
    INDEX 01 00:37:07
  TRACK 47 AUDIO
    TITLE "0:"
    INDEX 01 00:39:09
  TRACK 48 AUDIO
    TITLE "4:cjc046_4326"
    INDEX 01 00:39:25
  TRACK 49 AUDIO
    TITLE "0:"
    INDEX 01 00:40:30
  TRACK 50 AUDIO
    TITLE "2:cjc046_4327"
    INDEX 01 00:41:40
  TRACK 51 AUDIO
    TITLE "0:"
    INDEX 01 00:42:70
  TRACK 52 AUDIO
    TITLE "3:cjc046_4328"
    INDEX 01 00:43:17
  TRACK 53 AUDIO
    TITLE "0:"
    INDEX 01 00:45:00
  TRACK 54 AUDIO
    TITLE "4:cjc046_4329"
    INDEX 01 00:45:10
  TRACK 55 AUDIO
    TITLE "0:"
    INDEX 01 00:46:41
  TRACK 56 AUDIO
    TITLE "2:cjc046_4330"
    INDEX 01 00:47:50
  TRACK 57 AUDIO
    TITLE "0:"
    INDEX 01 00:48:69
  TRACK 58 AUDIO
    TITLE "3:cjc046_4331"
    INDEX 01 00:49:16
  TRACK 59 AUDIO
    TITLE "0:"
    INDEX 01 00:51:05
  TRACK 60 AUDIO
    TITLE "4:cjc046_4332"
    INDEX 01 00:51:24
  TRACK 61 AUDIO
    TITLE "0:"
    INDEX 01 00:52:45
  TRACK 62 AUDIO
    TITLE "2:cjc046_4333"
    INDEX 01 00:53:55
  TRACK 63 AUDIO
    TITLE "0:"
    INDEX 01 00:54:64
  TRACK 64 AUDIO
    TITLE "3:cjc046_4334"
    INDEX 01 00:55:08
  TRACK 65 AUDIO
    TITLE "0:"
    INDEX 01 00:56:14
  TRACK 66 AUDIO
    TITLE "4:cjc046_4335"
    INDEX 01 00:56:29
  TRACK 67 AUDIO
    TITLE "0:"
    INDEX 01 00:57:37
  TRACK 68 AUDIO
    TITLE "2:cjc046_4336"
    INDEX 01 00:58:48
  TRACK 69 AUDIO
    TITLE "0:"
    INDEX 01 00:59:57
  TRACK 70 AUDIO
    TITLE "3:cjc046_4337"
    INDEX 01 00:59:73
  TRACK 71 AUDIO
    TITLE "0:"
    INDEX 01 01:01:36
  TRACK 72 AUDIO
    TITLE "4:cjc046_4338"
    INDEX 01 01:01:52
  TRACK 73 AUDIO
    TITLE "0:"
    INDEX 01 01:02:61
  TRACK 74 AUDIO
    TITLE "2:cjc046_4339"
    INDEX 01 01:03:65
  TRACK 75 AUDIO
    TITLE "0:"
    INDEX 01 01:04:74
  TRACK 76 AUDIO
    TITLE "3:cjc046_4340"
    INDEX 01 01:05:17
  TRACK 77 AUDIO
    TITLE "0:"
    INDEX 01 01:06:20
  TRACK 78 AUDIO
    TITLE "4:cjc046_4341"
    INDEX 01 01:06:40
  TRACK 79 AUDIO
    TITLE "0:"
    INDEX 01 01:07:47
